<?xml version="1.0" standalone="no"?>
<!DOCTYPE svg PUBLIC "-//W3C//DTD SVG 20010904//EN"
 "http://www.w3.org/TR/2001/REC-SVG-20010904/DTD/svg10.dtd">
<svg version="1.0" xmlns="http://www.w3.org/2000/svg"
 width="320.000000pt" height="320.000000pt" viewBox="0 0 320.000000 320.000000"
 preserveAspectRatio="xMidYMid meet">

<g transform="translate(0.000000,320.000000) scale(0.100000,-0.100000)"
fill="#7C28C6" stroke="none">
<path d="M1514 3194 c-6 -3 -35 -60 -64 -127 l-52 -122 -107 -27 c-58 -15
-124 -33 -146 -39 l-41 -12 -109 81 -110 80 -65 -35 c-110 -59 -101 -40 -84
-194 l15 -134 -108 -108 -108 -108 -105 11 c-58 6 -118 13 -135 15 -32 5 -32
5 -96 -110 l-28 -50 81 -109 c59 -81 78 -114 74 -130 -3 -11 -20 -78 -38 -148
l-33 -126 -122 -52 c-134 -58 -133 -57 -133 -150 0 -93 -1 -92 133 -150 l122
-52 33 -126 c18 -70 35 -137 38 -148 4 -16 -15 -49 -74 -130 l-81 -109 28 -50
c64 -115 64 -115 96 -110 17 2 78 9 137 16 l106 11 39 -44 c48 -54 77 -83 132
-131 l43 -39 -16 -136 c-17 -155 -26 -136 84 -196 l65 -35 110 83 110 82 85
-27 c47 -15 112 -33 146 -39 l61 -12 53 -123 c57 -135 58 -135 150 -135 92 0
93 0 150 135 l53 123 61 12 c34 6 99 24 146 39 l85 27 110 -82 109 -82 40 20
c22 11 59 32 81 46 22 15 41 27 42 27 1 1 -5 62 -13 137 l-16 136 43 39 c55
48 84 77 132 131 l39 44 106 -11 c59 -7 121 -14 137 -16 32 -5 32 -5 96 110
l28 50 -81 110 -81 109 12 41 c6 22 24 88 39 146 l27 107 121 52 c135 58 134
57 134 150 0 93 1 92 -133 150 l-122 52 -33 126 c-18 70 -35 137 -38 148 -4
16 15 49 74 130 l81 109 -28 50 c-64 115 -64 115 -96 110 -16 -2 -77 -9 -135
-15 l-105 -11 -108 108 -108 108 15 135 c8 74 14 134 13 135 -1 0 -20 12 -42
27 -22 14 -59 35 -81 46 l-40 20 -109 -82 -110 -82 -85 27 c-47 15 -112 33
-146 39 l-61 12 -53 123 c-29 68 -59 126 -67 129 -17 7 -153 6 -169 0z m277
-469 c429 -75 782 -391 903 -808 36 -124 49 -243 43 -382 -19 -418 -271 -786
-663 -972 -139 -65 -260 -94 -429 -100 -337 -13 -617 97 -852 332 -150 151
-245 316 -301 523 -23 88 -26 114 -26 287 0 211 9 262 78 432 144 351 478 619
859 688 98 18 287 18 388 0z"/>
<path d="M1385 2324 c-164 -25 -326 -62 -454 -104 -153 -50 -207 -96 -241
-208 -43 -139 -47 -260 -13 -380 19 -69 79 -132 148 -157 28 -10 51 -19 52
-19 0 -1 -12 -39 -28 -86 -27 -79 -29 -96 -29 -243 0 -172 8 -208 58 -260 15
-16 45 -39 67 -50 40 -22 47 -22 638 -25 387 -2 618 1 654 8 74 13 125 48 160
107 26 45 28 56 32 183 3 146 -6 210 -45 299 -13 29 -24 57 -24 62 0 5 17 16
38 24 50 21 101 71 122 120 30 67 45 203 32 283 -40 240 -98 299 -364 371
-214 59 -312 72 -553 76 -121 2 -233 1 -250 -1z m565 -204 c163 -29 337 -85
370 -118 41 -42 66 -170 50 -262 -18 -104 -28 -110 -146 -88 l-63 11 -41 93
c-44 96 -75 135 -123 153 -16 6 -87 11 -158 11 l-130 0 -42 90 c-41 89 -42 90
-72 83 -58 -12 -68 -9 -82 26 l-14 34 168 -6 c102 -3 213 -14 283 -27z m-509
-60 l33 -81 51 6 c48 6 52 5 63 -20 7 -14 12 -30 12 -35 0 -6 -73 -10 -181
-10 -245 0 -247 -1 -319 -164 l-36 -81 -87 -19 c-82 -19 -87 -19 -106 -2 -12
11 -22 41 -29 89 -12 82 -8 117 19 204 18 56 24 63 65 82 87 41 358 107 450
110 30 1 33 -2 65 -79z m522 -272 c14 -13 74 -130 139 -273 l113 -250 3 -107
c6 -165 72 -149 -604 -146 -489 3 -566 5 -575 18 -5 9 -8 69 -7 140 3 125 3
125 55 250 109 264 154 365 170 378 13 9 99 12 349 12 331 0 333 0 357 -22z"/>
<path d="M1506 1674 c-33 -10 -65 -32 -100 -67 -79 -79 -95 -160 -52 -252 79
-171 338 -203 465 -59 107 122 64 298 -89 367 -59 26 -160 32 -224 11z m185
-133 c48 -49 38 -125 -21 -156 -83 -43 -179 4 -180 88 0 31 7 45 31 68 26 25
39 29 86 29 47 0 59 -4 84 -29z"/>
</g>
</svg>
